<svg width="49" height="51" fill="none" xmlns="http://www.w3.org/2000/svg">
  <g clip-path="url(#clip0)" stroke="#fff" stroke-width="3" stroke-miterlimit="10" stroke-linecap="round" stroke-linejoin="round">
    <path d="M24.504 1.124C11.597 1.124 1.14 11.418 1.14 24.125c0 7.56 3.706 14.266 9.43 18.461-1.873 3.327-4.59 6.608-8.197 7.298 0 0 8.904-.292 16.704-3.387 1.743.405 3.554.63 5.426.63 12.899 0 23.362-10.295 23.362-23.002-.008-12.707-10.463-23.001-23.362-23.001z"/>
    <path d="M29.732 31.108L18.804 20.357l2.732-2.69a2.626 2.626 0 000-3.761l-1.514-1.491a2.726 2.726 0 00-3.82 0l-3.98 3.918a6.025 6.025 0 000 8.609l12.853 12.654c2.412 2.376 6.331 2.376 8.743 0l3.98-3.918a2.626 2.626 0 000-3.761l-1.514-1.491a2.726 2.726 0 00-3.82 0l-2.732 2.682z"/>
  </g>
  <defs>
    <clipPath id="clip0">
      <path fill="#fff" d="M0 0h49v51H0z"/>
    </clipPath>
  </defs>
</svg>
