<svg width="34" height="53" fill="none" xmlns="http://www.w3.org/2000/svg">
  <g clip-path="url(#clip0)" stroke="#fff" stroke-width="3" stroke-miterlimit="10" stroke-linecap="round" stroke-linejoin="round">
    <path d="M16.996 24.6c2.2 0 3.982-1.826 3.982-4.078 0-2.251-1.783-4.077-3.982-4.077-2.199 0-3.982 1.826-3.982 4.077 0 2.252 1.783 4.077 3.982 4.077zM20.44 27.781a4.559 4.559 0 01-3.436 1.576 4.56 4.56 0 01-3.437-1.576c-3.003.345-5.334 2.945-5.334 6.112v1.384c0 1.553 1.225 2.807 2.742 2.807h12.058c1.516 0 2.742-1.254 2.742-2.807v-1.384c-.008-3.167-2.339-5.768-5.335-6.112z"/>
    <path d="M27.859 51.853H6.14c-2.772 0-5.02-2.303-5.02-5.14V6.288c0-2.838 2.248-5.14 5.02-5.14h21.725c2.772 0 5.02 2.302 5.02 5.14v40.425c-.007 2.837-2.255 5.14-5.027 5.14z"/>
    <path d="M22.995 6.242h-11.99L9.51 1.147h14.98l-1.495 5.095zM12.917 47.18h8.166"/>
  </g>
  <defs>
    <clipPath id="clip0">
      <path fill="#fff" d="M0 0h34v53H0z"/>
    </clipPath>
  </defs>
</svg>
