<svg width="65" height="49" fill="none" xmlns="http://www.w3.org/2000/svg">
  <g clip-path="url(#clip0)" stroke="#fff" stroke-width="3" stroke-miterlimit="10">
    <path d="M62.351 1.042H47.636a1.6 1.6 0 00-1.603 1.598v9.31a1.6 1.6 0 001.603 1.597h1.457v4.245l3.702-4.245h9.556a1.6 1.6 0 001.603-1.598V2.64a1.6 1.6 0 00-1.603-1.597z" stroke-linejoin="round"/>
    <path d="M51.038 5.433h7.912M51.038 9.004h7.912" stroke-linecap="round" stroke-linejoin="round"/>
    <path d="M2.649 7.982h14.714a1.6 1.6 0 011.604 1.598v9.303a1.6 1.6 0 01-1.604 1.598h-1.456v4.245l-3.702-4.245H2.65a1.6 1.6 0 01-1.603-1.598V9.58a1.6 1.6 0 011.603-1.598z" stroke-linejoin="round"/>
    <path d="M13.969 12.373H6.05M13.969 15.944H6.05" stroke-linecap="round" stroke-linejoin="round"/>
    <path d="M56.245 13.547V31.68a4.538 4.538 0 01-4.545 4.53H14.547a4.538 4.538 0 01-4.544-4.53V20.488M10.01 8.059a4.538 4.538 0 014.544-4.53h31.48"/>
    <path d="M38.157 42.962H28.098l-1.485-6.753h13.028l-1.484 6.753zM44.325 47.958H21.922v-1.674a3.319 3.319 0 013.325-3.314h15.76a3.319 3.319 0 013.325 3.314v1.674h-.007z" stroke-linejoin="round"/>
    <path d="M56.245 29.325H10.01"/>
  </g>
  <defs>
    <clipPath id="clip0">
      <path fill="#fff" d="M0 0h65v49H0z"/>
    </clipPath>
  </defs>
</svg>
